<svg id="tretment-svg" xmlns="http://www.w3.org/2000/svg" xmlns:xlink="http://www.w3.org/1999/xlink" version="1.1" x="0px" y="0px" viewBox="0 0 100 125" enable-background="new 0 0 100 100" xml:space="preserve"><path d="M82.222,20.538v68.826c0,3.106-2.529,5.636-5.636,5.636H24.2c-3.106,0-5.636-2.529-5.636-5.636V20.538  c0-3.107,2.529-5.637,5.636-5.637h7.993c0.282,0,0.513,0.23,0.513,0.513s-0.23,0.513-0.513,0.513H24.2  c-2.543,0-4.61,2.068-4.61,4.611v68.826c0,2.543,2.067,4.61,4.61,4.61h52.386c2.543,0,4.61-2.067,4.61-4.61V20.538  c0-2.543-2.067-4.611-4.61-4.611h-7.762c-0.285,0-0.513-0.23-0.513-0.513s0.228-0.513,0.513-0.513h7.762  C79.692,14.901,82.222,17.431,82.222,20.538z M66.275,20.025H34.51v-4.972c0-2.742,2.231-4.972,4.972-4.972h5.344  C45.085,7.236,47.481,5,50.392,5s5.307,2.236,5.567,5.082h5.344c2.741,0,4.973,2.23,4.973,4.972V20.025z M45.823,10.593  c0,0.175,0.032,0.342,0.053,0.513c0.259,2.276,2.172,4.055,4.516,4.055s4.258-1.779,4.517-4.055c0.021-0.17,0.053-0.337,0.053-0.513  s-0.031-0.341-0.053-0.512c-0.259-2.276-2.173-4.057-4.517-4.057s-4.257,1.781-4.516,4.057  C45.855,10.251,45.823,10.417,45.823,10.593z M65.25,15.053c0-2.177-1.771-3.948-3.947-3.948h-5.344  c-0.261,2.845-2.657,5.081-5.567,5.081s-5.307-2.235-5.566-5.081h-5.344c-2.177,0-3.946,1.771-3.946,3.948v3.948H65.25V15.053z   M75.327,85.438c0-0.283-0.229-0.513-0.513-0.513H25.972c-0.283,0-0.513,0.229-0.513,0.513c0,0.282,0.229,0.513,0.513,0.513h48.843  C75.098,85.951,75.327,85.72,75.327,85.438z M75.327,78.266c0-0.284-0.229-0.513-0.513-0.513H25.972  c-0.283,0-0.513,0.229-0.513,0.513c0,0.283,0.229,0.511,0.513,0.511h48.843C75.098,78.777,75.327,78.549,75.327,78.266z   M75.327,71.093c0-0.283-0.229-0.513-0.513-0.513H25.972c-0.283,0-0.513,0.229-0.513,0.513c0,0.282,0.229,0.513,0.513,0.513h48.843  C75.098,71.606,75.327,71.375,75.327,71.093z M75.327,63.919c0-0.282-0.229-0.511-0.513-0.511H25.972  c-0.283,0-0.513,0.229-0.513,0.511c0,0.285,0.229,0.513,0.513,0.513h48.843C75.098,64.432,75.327,64.205,75.327,63.919z   M75.327,56.749c0-0.283-0.229-0.513-0.513-0.513H25.972c-0.283,0-0.513,0.229-0.513,0.513c0,0.282,0.229,0.513,0.513,0.513h48.843  C75.098,57.261,75.327,57.031,75.327,56.749z M75.327,49.575c0-0.283-0.229-0.512-0.513-0.512H25.972  c-0.283,0-0.513,0.229-0.513,0.512c0,0.284,0.229,0.513,0.513,0.513h48.843C75.098,50.087,75.327,49.858,75.327,49.575z   M52.399,42.673h-4.014c-0.282,0-0.513-0.229-0.513-0.512v-5.508h-5.506c-0.285,0-0.513-0.229-0.513-0.512v-4.014  c0-0.283,0.228-0.511,0.513-0.511h5.506v-5.508c0-0.283,0.23-0.512,0.513-0.512h4.014c0.282,0,0.513,0.229,0.513,0.512v5.508h5.506  c0.285,0,0.513,0.229,0.513,0.511v4.014c0,0.283-0.228,0.512-0.513,0.512h-5.506v5.508C52.912,42.444,52.682,42.673,52.399,42.673z   M48.898,41.649h2.988v-5.507c0-0.284,0.229-0.513,0.513-0.513h5.506v-2.988h-5.506c-0.283,0-0.513-0.229-0.513-0.513v-5.507h-2.988  v5.507c0,0.284-0.229,0.513-0.513,0.513h-5.508v2.988h5.508c0.283,0,0.513,0.229,0.513,0.513V41.649z"/></svg>