<svg xmlns="http://www.w3.org/2000/svg" xmlns:xlink="http://www.w3.org/1999/xlink" version="1.1" x="0px" y="0px" viewBox="0 0 100 125" enable-background="new 0 0 100 100" xml:space="preserve"><g><path fill="none" d="M23.89,50.96v42.814c0.823,0.005,1.639-0.063,2.454-0.171l-0.002-45.097L23.89,50.96z"/><path fill="none" d="M20.212,54.64v38.725c0.81,0.172,1.629,0.289,2.453,0.352V52.188L20.212,54.64z"/><path fill="none" d="M27.569,47.282l0.001,46.126c0.831-0.169,1.647-0.411,2.451-0.702V44.83L27.569,47.282z"/><path fill="none" d="M31.246,43.604v48.612c0.842-0.379,1.667-0.808,2.454-1.32V41.153L31.246,43.604z"/><path fill="none" d="M36.987,37.867l-2.061,2.059v50.078c0.563-0.439,1.109-0.906,1.627-1.423l0.825-0.825V38.258L36.987,37.867z"/><path fill="none" d="M7.953,83.654V68.368C5.658,73.193,5.659,78.83,7.953,83.654z"/><path fill="none" d="M16.535,58.315V92.13c0.8,0.369,1.616,0.692,2.452,0.935v-37.2L16.535,58.315z"/><path fill="none" d="M12.857,61.994v27.878c0.778,0.624,1.602,1.165,2.45,1.64V59.541L12.857,61.994z"/><path fill="none" d="M11.411,63.44c-0.848,0.848-1.592,1.765-2.234,2.729v19.684c0.642,0.962,1.386,1.879,2.234,2.728   c0.071,0.071,0.147,0.128,0.22,0.198V63.22L11.411,63.44z"/><path fill="none" d="M88.567,11.424c-6.931-6.931-18.21-6.931-25.139,0.001L49.637,25.214l-1.226,1.227l-2.452,2.45l-1.226,1.227   l-2.452,2.452l-1.226,1.226l-2.452,2.453l-0.75,0.751l0.751,0.751l2.452,2.453l1.224,1.226l2.453,2.453l1.226,1.226l2.451,2.449   l1.226,1.226l2.453,2.452l1.225,1.227l2.453,2.452l1.226,1.227l2.453,2.454l1.227,1.225l2.322,2.321l0.129-0.13l1.226-1.225   l2.453-2.452l1.226-1.227l2.451-2.453l1.225-1.225l2.454-2.454l1.227-1.226l2.452-2.453l1.226-1.225l9.505-9.506   C95.499,29.635,95.5,18.355,88.567,11.424z"/><polygon fill="none" points="38.605,39.484 38.605,86.529 41.053,84.079 41.057,41.937  "/><polygon fill="none" points="56.993,57.872 56.993,68.141 59.445,65.688 59.446,60.326  "/><polygon fill="none" points="60.673,61.552 60.671,64.462 62.126,63.006  "/><polygon fill="none" points="45.959,46.839 45.959,79.174 48.411,76.722 48.411,49.291  "/><polygon fill="none" points="53.314,54.195 53.314,71.819 55.767,69.367 55.767,56.646  "/><polygon fill="none" points="49.637,50.517 49.637,75.497 52.089,73.044 52.089,52.969  "/><polygon fill="none" points="42.281,43.161 42.28,82.853 44.733,80.399 44.733,45.613  "/><path d="M89.434,10.559c-7.409-7.411-19.465-7.411-26.874,0L10.544,62.573c-0.49,0.489-0.941,1.001-1.367,1.528   c-0.447,0.557-0.848,1.132-1.225,1.722c-1.165,1.833-1.976,3.82-2.453,5.875c-0.657,2.836-0.656,5.789,0,8.627   c0.477,2.055,1.288,4.042,2.453,5.874c0.375,0.589,0.78,1.168,1.225,1.722c0.424,0.525,0.877,1.038,1.367,1.527   c0.349,0.35,0.718,0.666,1.086,0.984c0.396,0.34,0.809,0.657,1.226,0.958c0.789,0.573,1.604,1.091,2.451,1.523   c0.402,0.206,0.814,0.393,1.227,0.567c0.801,0.341,1.619,0.621,2.452,0.846c0.408,0.11,0.813,0.215,1.226,0.299   c0.812,0.162,1.631,0.261,2.453,0.319c0.409,0.027,0.817,0.055,1.225,0.057c0.821,0.004,1.639-0.059,2.454-0.16   c0.411-0.05,0.819-0.098,1.227-0.176c0.83-0.158,1.646-0.392,2.45-0.658c0.412-0.138,0.824-0.274,1.226-0.442   c0.842-0.347,1.659-0.773,2.454-1.246c0.417-0.25,0.826-0.512,1.227-0.794c0.854-0.605,1.682-1.274,2.452-2.039   c0.013-0.013,0.027-0.023,0.042-0.038l52.014-52.014C96.845,30.022,96.845,17.967,89.434,10.559z M7.953,68.368v15.286   C5.659,78.83,5.658,73.193,7.953,68.368z M11.411,88.581c-0.848-0.849-1.592-1.766-2.234-2.728V66.169   c0.642-0.964,1.386-1.881,2.234-2.729l0.22-0.221v25.559C11.559,88.709,11.482,88.652,11.411,88.581z M12.857,89.872V61.994   l2.45-2.453v31.971C14.459,91.036,13.635,90.496,12.857,89.872z M16.535,92.13V58.315l2.452-2.451v37.2   C18.15,92.822,17.335,92.499,16.535,92.13z M20.212,93.365V54.64l2.453-2.453v41.529C21.841,93.654,21.021,93.537,20.212,93.365z    M23.89,93.774V50.96l2.452-2.454l0.002,45.097C25.528,93.712,24.712,93.779,23.89,93.774z M27.57,93.408l-0.001-46.126   l2.452-2.453v47.876C29.217,92.997,28.401,93.239,27.57,93.408z M31.246,92.216V43.604l2.454-2.451v49.743   C32.913,91.408,32.088,91.837,31.246,92.216z M36.553,88.581c-0.518,0.517-1.064,0.984-1.627,1.423V39.926l2.061-2.059l0.391,0.391   v49.498L36.553,88.581z M38.605,86.529V39.484l2.452,2.453l-0.004,42.142L38.605,86.529z M42.28,82.853l0.001-39.692l2.453,2.453   v34.786L42.28,82.853z M45.959,79.174V46.839l2.451,2.452v27.431L45.959,79.174z M49.637,75.497v-24.98l2.453,2.453v20.075   L49.637,75.497z M53.314,71.819V54.195l2.453,2.451v12.721L53.314,71.819z M56.993,68.141V57.872l2.453,2.454l-0.001,5.362   L56.993,68.141z M60.673,61.552l1.454,1.454l-1.456,1.456L60.673,61.552z M63.124,62.009l-0.129,0.13l-25.141-25.14l25.575-25.574   c6.929-6.932,18.208-6.932,25.139-0.001c6.933,6.931,6.932,18.211,0,25.141L63.124,62.009z"/></g></svg>